<svg width="350" height="350" viewBox="0 0 350 350" fill="none" xmlns="http://www.w3.org/2000/svg">
<circle cx="175" cy="175" r="175" fill="#4B64E9"/>
<path d="M176.959 68H216.651V205.675C216.651 221.133 213.382 234.659 206.843 246.252C200.365 257.846 191.29 266.886 179.618 273.373C167.945 279.791 154.348 283 138.826 283C123.242 283 109.614 279.791 97.942 273.373C86.2697 266.886 77.1946 257.846 70.7168 246.252C64.2389 234.659 61 221.133 61 205.675V68H100.692V201.844C100.692 209.919 102.25 217.096 105.367 223.376C108.545 229.655 113.006 234.59 118.751 238.178C124.495 241.767 131.187 243.561 138.826 243.561C146.526 243.561 153.218 241.767 158.901 238.178C164.645 234.59 169.076 229.655 172.193 223.376C175.37 217.096 176.959 209.919 176.959 201.844V68Z" fill="white"/>
<path d="M289 68V279.998H249.308V68H289Z" fill="white"/>
</svg>
