<?xml version="1.0" standalone="no"?>
<!DOCTYPE svg PUBLIC "-//W3C//DTD SVG 20010904//EN"
 "http://www.w3.org/TR/2001/REC-SVG-20010904/DTD/svg10.dtd">
<svg version="1.0" xmlns="http://www.w3.org/2000/svg"
 width="700.000000pt" height="700.000000pt" viewBox="0 0 700.000000 700.000000"
 preserveAspectRatio="xMidYMid meet">
<metadata>
Created by potrace 1.14, written by Peter Selinger 2001-2017
</metadata>
<g transform="translate(0.000000,700.000000) scale(0.100000,-0.100000)"
fill="#000000" stroke="none">
<path d="M3240 6989 c-1013 -77 -1935 -584 -2549 -1403 -604 -805 -825 -1850
-605 -2851 97 -440 297 -890 557 -1255 211 -295 522 -610 802 -812 950 -684
2157 -853 3258 -454 476 173 896 443 1268 815 292 293 486 561 665 921 566
1140 462 2519 -269 3555 -161 227 -382 473 -582 645 -705 606 -1624 909 -2545
839z m-1230 -2666 c0 -725 5 -1372 10 -1438 20 -257 112 -454 278 -590 121
-100 256 -151 427 -161 222 -14 404 47 556 185 104 94 187 239 231 403 l22 83
3 1418 4 1417 395 0 395 0 -3 -1502 -3 -1503 -23 -108 c-67 -317 -208 -576
-425 -784 -281 -268 -650 -403 -1102 -403 -214 0 -386 27 -576 90 -222 73
-386 175 -554 344 -212 213 -335 454 -402 786 -15 77 -17 222 -20 1583 l-4
1497 396 0 395 0 0 -1317z m3770 -803 l0 -2120 -395 0 -395 0 0 2120 0 2120
395 0 395 0 0 -2120z"/>
</g>
</svg>
